<svg xmlns="http://www.w3.org/2000/svg" viewBox="0 0 32 32" role="img" aria-label="Spotify">
  <rect width="32" height="32" fill="#1ed760"/>
  <path fill="#121212" d="M9 12.2c4.5-1.2 9.5-.7 13.4 1.5.5.3.6.9.3 1.4-.3.5-.9.6-1.4.3-3.4-2-7.8-2.4-11.8-1.3-.5.1-1.1-.2-1.2-.7-.2-.5.1-1.1.7-1.2Zm.5 4.1c3.7-.9 7.4-.5 10.4 1.3.4.2.6.8.3 1.2-.2.4-.8.6-1.2.3-2.6-1.5-5.9-1.9-9.1-1.1-.5.1-.9-.2-1-.6-.1-.5.2-.9.6-1.1Zm.6 3.8c2.6-.6 5.2-.3 7.4 1 .4.2.5.7.3 1-.2.4-.7.5-1 .3-1.8-1.1-4.1-1.4-6.3-.8-.4.1-.8-.1-.9-.5-.1-.4.1-.8.5-1Z"/>
</svg>
